<svg xmlns="http://www.w3.org/2000/svg" viewBox="0 0 32 32" role="img" aria-label="cat eye search icon">
  <defs>
    <linearGradient id="lens" x1="6" y1="8" x2="25" y2="24" gradientUnits="userSpaceOnUse">
      <stop offset="0" stop-color="#00c8f8"/>
      <stop offset="0.55" stop-color="#19e6a3"/>
      <stop offset="1" stop-color="#ff5a45"/>
    </linearGradient>
  </defs>
  <path d="M4.5 15.8C8.4 9.7 13.2 7 16.8 7s8.1 2.7 10.7 8.8c-3.9 6.1-8.5 8.8-12.1 8.8S7.1 21.9 4.5 15.8Z" fill="#11161b" stroke="#f2a23a" stroke-width="1.5" stroke-linejoin="round"/>
  <path d="M7.8 15.9c2.6-3.7 5.6-5.4 8.5-5.4 2.8 0 5.4 1.6 7.9 5.4-2.6 3.7-5.5 5.3-8.4 5.3-2.8 0-5.5-1.6-8-5.3Z" fill="url(#lens)" opacity="0.9"/>
  <path d="M16 10.7c1.8 2.2 1.8 8.3 0 10.5-1.9-2.2-1.9-8.3 0-10.5Z" fill="#071014"/>
  <path d="M22.4 22.2l5.1 5.1" fill="none" stroke="#00c8f8" stroke-width="2" stroke-linecap="round"/>
</svg>
